<?xml version="1.0" encoding="UTF-8" standalone="no"?>
<!DOCTYPE svg PUBLIC "-//W3C//DTD SVG 1.1//EN" "http://www.w3.org/Graphics/SVG/1.1/DTD/svg11.dtd">
<svg width="100%" height="100%" viewBox="0 0 356 42" version="1.1" xmlns="http://www.w3.org/2000/svg" xmlns:xlink="http://www.w3.org/1999/xlink" xml:space="preserve" xmlns:serif="http://www.serif.com/" style="fill-rule:evenodd;clip-rule:evenodd;stroke-linejoin:round;stroke-miterlimit:2;">
    <g transform="matrix(0.839623,0,0,0.84,0,0)">
        <path d="M31.121,0.348C33.29,-0.291 35.799,0.046 37.621,1.428C38.695,2.227 39.583,3.317 39.991,4.605C40.617,6.381 40.289,8.533 38.983,9.925C38.195,10.708 37.202,11.237 36.222,11.735C37.199,10.448 37.957,8.741 37.49,7.111C37.248,6.248 36.429,5.618 35.544,5.554C35.859,7.493 34.704,9.546 32.866,10.248C31.32,10.893 29.417,10.536 28.219,9.361C26.767,7.979 26.421,5.676 27.172,3.853C27.802,2.109 29.44,0.961 31.121,0.348Z" style="fill:rgb(153,153,153);fill-rule:nonzero;"/>
        <path d="M41.035,7.489C45.086,7.72 48.345,11.718 48.013,15.712C47.834,17.359 47.002,18.999 45.56,19.882C43.527,21.201 40.49,20.786 38.975,18.863C37.873,17.478 37.835,15.373 38.882,13.945C39.911,12.466 41.917,11.852 43.624,12.347C44.01,11.577 43.955,10.653 43.549,9.901C43.075,8.789 42.082,8.027 41.035,7.489Z" style="fill:rgb(153,153,153);fill-rule:nonzero;"/>
        <path d="M27.084,12.234C28.025,11.834 29,11.523 29.979,11.232C29.236,11.896 28.536,12.617 27.994,13.459C27.028,14.932 26.565,16.663 26.224,18.372C25.951,19.766 26.029,21.203 26.225,22.601C26.331,23.164 26.444,23.785 26.858,24.208C28.231,23.209 29.907,22.761 31.56,22.488C34.506,22.014 37.607,22.528 40.223,23.97C42.948,25.446 45.129,27.893 46.286,30.769C47.466,33.669 47.592,36.98 46.651,39.964C45.784,42.754 43.972,45.224 41.616,46.944C39.458,48.529 36.852,49.484 34.186,49.712C30.115,50.16 25.806,49.631 22.233,47.521C20.373,46.487 18.703,45.098 17.417,43.395C16.405,42.057 15.412,40.674 14.81,39.095C14.328,37.889 14.046,36.609 13.92,35.318C13.646,32.752 13.828,30.148 14.359,27.626C14.794,25.634 15.436,23.675 16.418,21.883C18.719,17.561 22.554,14.086 27.084,12.234Z" style="fill:rgb(153,153,153);fill-rule:nonzero;"/>
        <path d="M0.258,31.701C1.05,28.184 4.866,25.781 8.382,26.414C10.286,26.733 12,27.999 12.863,29.728C13.743,31.438 13.769,33.551 12.953,35.289C12.125,37.084 10.428,38.429 8.514,38.891C9.599,40.335 11.163,41.436 12.923,41.87C13.927,42.149 14.968,42.275 16.009,42.273C15.881,42.472 15.643,42.532 15.438,42.614C14.535,42.926 13.58,43.039 12.636,43.144C10.289,43.325 7.836,43.118 5.712,42.033C1.845,40.365 -0.668,35.865 0.258,31.701Z" style="fill:rgb(153,153,153);fill-rule:nonzero;"/>
        <g transform="matrix(0.942308,0,0,0.942308,-0.134615,4.26923)">
            <text x="67px" y="33.13px" style="font-family:'Montserrat-SemiBold', 'Montserrat';font-weight:600;font-size:30px;fill-opacity:0.4;">OL<tspan x="109.84px " y="33.13px ">G</tspan>A ZA<tspan x="205px 226.42px " y="33.13px 33.13px ">VE</tspan>RSHINSK<tspan x="385.33px 406.54px 425.11px " y="33.13px 33.13px 33.13px ">AYA</tspan></text>
        </g>
    </g>
</svg>
