<svg width="464" height="50" viewBox="0 0 464 50" fill="none" xmlns="http://www.w3.org/2000/svg">
<g clip-path="url(#clip0)">
<path d="M31.1208 0.348127C33.2903 -0.29082 35.7989 0.0455449 37.6206 1.42773C38.6951 2.22678 39.5832 3.31666 39.9912 4.60484C40.6166 6.38067 40.2892 8.53253 38.9828 9.92499C38.1945 10.7079 37.2022 11.2367 36.2217 11.7346C37.1993 10.4479 37.9567 8.7411 37.49 7.11068C37.2478 6.24847 36.4287 5.61834 35.5435 5.55371C35.8591 7.49258 34.7039 9.54603 32.8661 10.2481C31.3204 10.893 29.4166 10.536 28.2188 9.36095C26.767 7.97877 26.4206 5.67562 27.1722 3.85279C27.8019 2.10927 29.44 0.960635 31.1208 0.348127Z" fill="#999999"/>
<path d="M41.0349 7.4895C45.0863 7.72011 48.345 11.7183 48.0132 15.7121C47.8341 17.3587 47.0019 18.9994 45.5604 19.8821C43.5274 21.2012 40.4903 20.7855 38.9754 18.8628C37.873 17.4776 37.8349 15.3728 38.8815 13.9451C39.9105 12.4659 41.9171 11.852 43.6242 12.347C44.0103 11.5773 43.9545 10.6534 43.5494 9.90134C43.0752 8.78943 42.0815 8.0271 41.0349 7.4895Z" fill="#999999"/>
<path d="M27.0841 12.2339C28.025 11.8344 28.9997 11.523 29.9788 11.2322C29.236 11.8961 28.5359 12.6173 27.9942 13.4589C27.0283 14.9322 26.5645 16.6625 26.2239 18.3722C25.9509 19.7662 26.0287 21.2027 26.2254 22.601C26.3311 23.1636 26.4441 23.7849 26.8581 24.2079C28.2305 23.2091 29.9069 22.7611 31.5597 22.4879C34.5058 22.0135 37.6074 22.5276 40.2232 23.97C42.9476 25.4462 45.1289 27.8933 46.2856 30.7693C47.4658 33.6688 47.592 36.9795 46.6511 39.9642C45.7836 42.7536 43.9722 45.2242 41.6162 46.9442C39.4584 48.5291 36.8515 49.4838 34.1858 49.7115C30.1153 50.1595 25.8056 49.6307 22.2327 47.5214C20.3729 46.4874 18.7025 45.0978 17.4166 43.3954C16.4052 42.0573 15.4115 40.6737 14.8096 39.0947C14.3282 37.8888 14.0463 36.6094 13.9201 35.3183C13.6456 32.7522 13.8276 30.1479 14.359 27.6259C14.7935 25.6342 15.4364 23.6748 16.4184 21.8828C18.7186 17.5614 22.5542 14.0861 27.0841 12.2339Z" fill="#999999"/>
<path d="M79.9399 22.5924C82.6907 22.1356 85.6485 22.4852 88.0691 23.9335C90.036 25.1174 91.6742 26.8932 92.577 29.0142C93.5208 31.2513 93.6529 33.7865 93.1553 36.1469C92.5535 38.9627 90.6731 41.4083 88.2511 42.9183C86.2034 44.2065 83.7256 44.6853 81.33 44.5296C79.363 44.4195 77.4078 43.8216 75.7726 42.7097C73.4533 41.1572 71.6874 38.7248 71.1502 35.9633C70.6893 33.5985 70.8522 31.0662 71.8386 28.8512C73.3036 25.6139 76.4273 23.1668 79.9399 22.5924ZM80.963 25.8195C78.7861 26.1118 76.875 27.5307 75.7373 29.377C74.6496 31.1338 74.3913 33.3253 74.8228 35.3259C75.25 37.2956 76.5359 39.0317 78.2166 40.1216C79.9502 41.2394 82.1564 41.4847 84.1366 40.9897C86.0184 40.5153 87.6155 39.1963 88.6225 37.56C89.6837 35.8355 89.9436 33.691 89.5399 31.7242C89.1274 29.7046 87.8151 27.9199 86.0904 26.8154C84.5828 25.8533 82.7157 25.5624 80.963 25.8195Z" fill="#999999"/>
<path d="M120.705 23.8231C122.898 22.5467 125.527 22.2 128.019 22.5099C130.202 22.7552 132.319 23.6409 133.967 25.1054C133.32 26.0293 132.674 26.9547 132.025 27.8771C131.08 27.078 129.974 26.4288 128.747 26.1909C127.133 25.8736 125.421 25.8721 123.849 26.3994C121.58 27.1647 119.695 29.0977 119.152 31.4552C118.767 33.112 118.818 34.8893 119.388 36.4977C120.304 39.0388 122.81 40.8837 125.491 41.0761C127.491 41.2142 129.585 40.8822 131.304 39.8012C131.309 37.8358 131.285 35.8691 131.316 33.9052C132.521 33.9214 133.728 33.9067 134.936 33.9126C134.936 36.3611 134.936 38.8082 134.936 41.2568C133.406 42.9504 131.257 43.9962 129.022 44.3605C126.41 44.7879 123.617 44.6704 121.202 43.4982C118.513 42.1895 116.348 39.7439 115.554 36.8385C114.98 34.7057 114.976 32.4129 115.558 30.2831C116.311 27.5466 118.271 25.2332 120.705 23.8231Z" fill="#999999"/>
<path d="M284.307 22.9963C286.565 22.162 289.087 22.2692 291.375 22.9258C292.823 23.3429 294.204 24.0171 295.368 24.9807C294.724 25.8958 294.076 26.8094 293.429 27.7215C292.356 26.7991 290.997 26.285 289.633 25.9766C288.465 25.7371 287.232 25.6431 286.07 25.9663C285.357 26.1734 284.62 26.5656 284.296 27.2691C283.864 28.218 284.034 29.4812 284.87 30.1584C285.476 30.6475 286.236 30.8854 286.966 31.1366C288.501 31.6551 290.12 31.8945 291.631 32.4953C292.695 32.9124 293.736 33.4544 294.567 34.252C295.462 35.1304 295.892 36.3848 295.976 37.6171C296.086 38.9171 295.873 40.2787 295.17 41.395C294.208 42.9285 292.551 43.9346 290.807 44.3239C288.569 44.8027 286.2 44.6162 284.039 43.8803C282.329 43.2957 280.773 42.3174 279.425 41.1233C280.181 40.2067 280.943 39.2931 281.703 38.3795C283.461 39.9115 285.645 41.0865 288.014 41.1908C289.225 41.2525 290.565 41.0719 291.487 40.2096C292.454 39.3357 292.481 37.6171 291.499 36.7461C290.84 36.1733 289.991 35.8986 289.178 35.6327C286.831 34.9292 284.246 34.6339 282.261 33.0769C281.256 32.3543 280.61 31.2056 280.409 29.9938C280.155 28.4912 280.266 26.852 281.066 25.5212C281.786 24.3109 283.017 23.4971 284.307 22.9963Z" fill="#999999"/>
<path d="M361.813 25.2597C362.956 23.6528 364.894 22.7818 366.804 22.513C370.004 22.1047 373.419 22.9375 375.947 24.9807C375.304 25.8972 374.652 26.8094 374.008 27.7245C372.972 26.8255 371.661 26.3188 370.343 26.0059C369.133 25.7415 367.853 25.6343 366.647 25.9648C365.899 26.1836 365.127 26.6125 364.829 27.3734C364.503 28.2165 364.606 29.2667 365.229 29.9498C365.512 30.2685 365.894 30.48 366.28 30.6577C368.388 31.611 370.752 31.7902 372.853 32.7655C374.081 33.3281 375.317 34.1066 375.952 35.3492C376.631 36.7108 376.727 38.3207 376.414 39.7954C375.946 41.8533 374.206 43.4161 372.257 44.0727C370.249 44.7498 368.053 44.7013 365.998 44.2724C363.762 43.7848 361.701 42.642 360.004 41.1203C360.765 40.2067 361.521 39.2901 362.286 38.3794C364.038 39.9129 366.219 41.0821 368.586 41.1908C369.832 41.2525 371.232 41.0645 372.147 40.1274C373.154 39.1359 372.983 37.2235 371.749 36.4905C369.985 35.4227 367.875 35.2567 365.954 34.6045C364.575 34.2006 363.235 33.5528 362.217 32.5232C361.436 31.7182 361.033 30.6166 360.919 29.5164C360.763 28.0564 360.953 26.4877 361.813 25.2597Z" fill="#999999"/>
<path d="M98.5864 22.9333C99.7916 22.9318 100.997 22.9333 102.202 22.9333C102.209 28.9217 102.186 34.9088 102.214 40.8972C105.463 40.8796 108.713 40.8943 111.963 40.8899C111.963 42.04 111.963 43.1901 111.963 44.3402C107.504 44.3417 103.046 44.3417 98.5879 44.3402C98.5864 37.2046 98.5879 30.0689 98.5864 22.9333Z" fill="#999999"/>
<path d="M146.503 22.9331C147.801 22.9419 149.098 22.9155 150.396 22.9463C153.511 30.0879 156.674 37.2059 159.802 44.3415C158.511 44.3401 157.217 44.3401 155.926 44.3415C155.198 42.7185 154.513 41.0733 153.759 39.462C150.205 39.4929 146.65 39.4664 143.096 39.4752C142.373 41.0983 141.677 42.7331 140.94 44.3489C139.653 44.3298 138.364 44.3459 137.076 44.3401C140.216 37.2044 143.359 30.0688 146.503 22.9331ZM148.439 27.3514C147.146 30.2715 145.862 33.1945 144.574 36.1175C147.149 36.116 149.724 36.1116 152.298 36.1189C151.026 33.1901 149.73 30.2715 148.439 27.3514Z" fill="#999999"/>
<path d="M171.209 22.9333C176.903 22.9318 182.598 22.9333 188.292 22.9333C188.288 23.8116 188.298 24.69 188.291 25.5684C188.299 25.7182 188.251 25.846 188.147 25.9503C184.038 30.9561 179.93 35.9619 175.833 40.9765C180.047 40.9868 184.261 40.978 188.476 40.981C188.476 42.1017 188.476 43.2209 188.476 44.3417C182.585 44.3402 176.696 44.3417 170.807 44.3402C170.805 43.4104 170.807 42.4806 170.804 41.5523C174.965 36.451 179.147 31.3659 183.306 26.2631C179.273 26.247 175.241 26.2602 171.21 26.2558C171.209 25.1483 171.209 24.0408 171.209 22.9333Z" fill="#999999"/>
<path d="M200.056 22.9287C201.34 22.9346 202.626 22.9375 203.912 22.9272C207.074 30.057 210.202 37.2029 213.35 44.34C212.057 44.3415 210.764 44.34 209.472 44.3415C208.75 42.7199 208.051 41.088 207.32 39.4708C203.764 39.4796 200.205 39.4752 196.649 39.4723C195.919 41.091 195.222 42.7228 194.497 44.3415C193.204 44.3386 191.912 44.3415 190.62 44.34C193.767 37.2044 196.9 30.0614 200.056 22.9287ZM198.122 36.1145C200.699 36.116 203.275 36.116 205.851 36.1145C204.564 33.193 203.276 30.2729 201.989 27.3514C200.688 30.2671 199.411 33.193 198.122 36.1145Z" fill="#999999"/>
<path d="M212.795 22.933C214.156 22.9433 215.518 22.9095 216.879 22.9521C219.022 28.2282 221.206 33.4896 223.374 38.7554C223.401 38.7539 223.451 38.7495 223.476 38.748C225.651 33.4778 227.816 28.2047 229.987 22.933C231.341 22.933 232.696 22.9315 234.05 22.933C231.185 30.0701 228.315 37.2043 225.45 44.3399C224.097 44.3399 222.743 44.3429 221.39 44.3385C218.532 37.2014 215.658 30.0701 212.795 22.933Z" fill="#999999"/>
<path d="M237.686 22.9331C242.702 22.9331 247.716 22.9331 252.732 22.9331C252.735 24.0685 252.725 25.2039 252.738 26.3394C248.936 26.3511 245.133 26.354 241.331 26.3394C241.306 28.2209 241.322 30.104 241.322 31.9856C244.739 31.9812 248.156 31.9856 251.575 31.9841C251.575 33.0608 251.575 34.1389 251.575 35.2156C248.156 35.2156 244.738 35.2156 241.319 35.2156C241.319 37.1192 241.316 39.0243 241.322 40.9279C245.247 40.9235 249.172 40.9264 253.099 40.9264C253.099 42.0648 253.099 43.2017 253.099 44.34C247.961 44.3415 242.824 44.3415 237.686 44.34C237.686 37.2044 237.686 30.0687 237.686 22.9331Z" fill="#999999"/>
<path d="M258.31 22.9331C260.181 22.9316 262.053 22.9331 263.926 22.9331C265.936 22.9478 267.966 22.8376 269.952 23.2313C271.392 23.5045 272.877 24.0245 273.884 25.1437C274.896 26.2453 275.296 27.7656 275.373 29.2271C275.462 30.9221 275.239 32.7244 274.269 34.1609C273.466 35.3742 272.156 36.1527 270.788 36.5684C272.648 39.1609 274.518 41.7475 276.38 44.3386C274.835 44.3386 273.293 44.3488 271.75 44.3341C270.071 41.9341 268.349 39.5633 266.675 37.1588C265.089 37.1368 263.5 37.1265 261.915 37.1633C261.936 39.556 261.919 41.9487 261.924 44.3415C260.719 44.34 259.513 44.3415 258.31 44.34C258.31 37.2044 258.31 30.0687 258.31 22.9331ZM261.927 33.8584C263.226 33.8554 264.526 33.8569 265.828 33.8569C267.232 33.8525 268.705 33.8657 270.009 33.2679C271.095 32.7714 271.59 31.542 271.65 30.411C271.721 29.2741 271.628 27.9375 270.711 27.134C269.787 26.4172 268.557 26.3247 267.436 26.2439C265.599 26.1895 263.763 26.2351 261.927 26.2174C261.922 28.7644 261.924 31.3114 261.927 33.8584Z" fill="#999999"/>
<path d="M301.062 22.9333C302.267 22.9333 303.471 22.9318 304.677 22.9347C304.676 26.0237 304.676 29.1142 304.677 32.2046C308.212 32.2046 311.747 32.2046 315.281 32.2046C315.283 29.1142 315.281 26.0237 315.283 22.9333C316.492 22.9333 317.703 22.9318 318.916 22.9333C318.914 30.0689 318.914 37.2046 318.916 44.3402C317.703 44.3417 316.492 44.3402 315.283 44.3402C315.281 41.4216 315.283 38.5015 315.281 35.583C311.747 35.5815 308.213 35.5844 304.679 35.5815C304.673 38.5015 304.677 41.4201 304.677 44.3402C303.471 44.3431 302.267 44.3402 301.062 44.3417C301.062 37.2046 301.062 30.0689 301.062 22.9333Z" fill="#999999"/>
<path d="M325.429 22.9333C326.64 22.9333 327.851 22.9318 329.062 22.9333C329.062 30.0689 329.062 37.2046 329.062 44.3402C327.851 44.3417 326.64 44.3402 325.43 44.3417C325.427 37.2046 325.429 30.0689 325.429 22.9333Z" fill="#999999"/>
<path d="M335.576 22.9331C336.785 22.9316 337.995 22.9346 339.208 22.9316C343.347 28.2298 347.441 33.5646 351.604 38.8451C351.621 33.5426 351.608 28.2386 351.61 22.936C352.821 22.9287 354.032 22.9346 355.244 22.9331C355.246 30.0688 355.244 37.2044 355.244 44.34C353.929 44.34 352.615 44.3415 351.301 44.34C347.285 39.1565 343.257 33.9832 339.246 28.7967C339.156 30.7944 339.232 32.8008 339.208 34.8028C339.208 37.9814 339.208 41.1615 339.208 44.34C337.997 44.3415 336.785 44.34 335.576 44.3415C335.576 37.2044 335.576 30.0688 335.576 22.9331Z" fill="#999999"/>
<path d="M381.631 22.9329C382.842 22.9344 384.053 22.9285 385.265 22.9374C385.256 26.4097 385.27 29.882 385.259 33.3559C388.511 29.8762 391.772 26.4053 395.03 22.9329C396.569 22.9344 398.109 22.9315 399.651 22.9344C396.784 26.0572 393.916 29.1799 391.052 32.3071C393.961 36.3156 396.866 40.3285 399.774 44.3399C398.337 44.3428 396.9 44.3384 395.464 44.3413C393.098 41.2259 390.738 38.1046 388.374 34.9863C387.334 36.1026 386.297 37.2233 385.262 38.3455C385.264 40.3431 385.262 42.3408 385.264 44.3399C384.051 44.3413 382.84 44.3399 381.631 44.3399C381.629 37.2042 381.629 30.0686 381.631 22.9329Z" fill="#999999"/>
<path d="M410.208 22.9478C411.505 22.9125 412.804 22.9419 414.105 22.9331C417.245 30.0687 420.39 37.2029 423.529 44.34C422.235 44.3415 420.942 44.3415 419.65 44.34C418.934 42.7184 418.225 41.0939 417.507 39.4738C413.952 39.4693 410.397 39.4884 406.843 39.4649C406.093 41.0777 405.407 42.7199 404.678 44.343C403.385 44.3386 402.092 44.3415 400.8 44.34C403.932 37.2088 407.094 30.0893 410.208 22.9478ZM412.161 27.3514C410.877 30.2729 409.587 33.193 408.302 36.1145C410.877 36.116 413.454 36.116 416.031 36.113C414.739 33.1944 413.463 30.2656 412.161 27.3514Z" fill="#999999"/>
<path d="M422.3 22.9302C423.622 22.9346 424.945 22.9331 426.269 22.9316C428.221 26.1646 430.153 29.4092 432.107 32.6407C434.043 29.4063 435.995 26.1807 437.92 22.9405C439.248 22.9243 440.578 22.9361 441.908 22.9346C439.264 27.2574 436.587 31.5611 433.962 35.8942C433.912 38.707 433.956 41.5257 433.942 44.34C432.712 44.3415 431.481 44.34 430.254 44.34C430.231 41.5125 430.3 38.6747 430.221 35.8516C427.602 31.5332 424.932 27.2427 422.3 22.9302Z" fill="#999999"/>
<path d="M450.098 22.936C451.392 22.9287 452.686 22.9331 453.982 22.9345C456.619 28.926 459.258 34.9159 461.896 40.9073C462.386 42.0574 462.931 43.1855 463.387 44.3503C462.095 44.3238 460.805 44.3562 459.516 44.3326C458.821 42.7081 458.093 41.0968 457.388 39.4767C453.825 39.4737 450.263 39.4752 446.7 39.4752C445.988 41.0953 445.266 42.7096 444.567 44.3341C443.271 44.3503 441.978 44.3341 440.683 44.3429C443.808 37.2014 446.969 30.0761 450.098 22.936ZM452.032 27.3484C450.763 30.2773 449.455 33.19 448.18 36.1174C450.756 36.1013 453.335 36.1394 455.913 36.0983C454.596 33.1915 453.35 30.2538 452.032 27.3484Z" fill="#999999"/>
<path d="M0.258437 31.7007C1.04963 28.1842 4.86614 25.7812 8.38174 26.4143C10.2856 26.733 12.0001 27.9992 12.8632 29.728C13.7425 31.4377 13.7689 33.5514 12.9527 35.289C12.1249 37.084 10.428 38.4294 8.51385 38.8906C9.59862 40.3345 11.1634 41.4362 12.9234 41.8695C13.9274 42.1485 14.9682 42.2749 16.0089 42.2734C15.8812 42.4717 15.6434 42.5319 15.4379 42.6142C14.5351 42.9256 13.5795 43.0387 12.6357 43.1444C10.2885 43.3251 7.83569 43.118 5.71165 42.0325C1.84523 40.3654 -0.667802 35.8648 0.258437 31.7007Z" fill="#999999"/>
</g>
<defs>
<clipPath id="clip0">
<rect width="463.996" height="49.9407" fill="white"/>
</clipPath>
</defs>
</svg>
